<?xml version="1.0" standalone="no"?>
<!DOCTYPE svg PUBLIC "-//W3C//DTD SVG 20010904//EN"
 "http://www.w3.org/TR/2001/REC-SVG-20010904/DTD/svg10.dtd">
<svg version="1.0" xmlns="http://www.w3.org/2000/svg"
 width="200.000000pt" height="200.000000pt" viewBox="0 0 200.000000 200.000000"
 preserveAspectRatio="xMidYMid meet">
<metadata>
Created by potrace 1.14, written by Peter Selinger 2001-2017
</metadata>
<g transform="translate(0.000000,200.000000) scale(0.100000,-0.100000)"
fill="#000000" stroke="none">
<path d="M522 1477 l-473 -473 476 -479 476 -479 475 475 475 474 -474 478
c-260 262 -475 477 -478 477 -2 0 -217 -213 -477 -473z m558 263 c33 -80 65
-154 70 -165 5 -11 39 -92 75 -180 37 -88 72 -174 80 -190 8 -17 18 -43 24
-58 14 -35 29 -32 -249 -52 -41 -3 -88 -8 -105 -10 -16 -2 -78 -7 -137 -11
l-107 -7 62 189 c35 104 97 291 137 416 41 125 78 224 82 220 3 -4 34 -72 68
-152z m805 -718 c-2 -3 -149 22 -305 52 -14 2 -63 12 -110 21 -112 20 -124 26
-137 66 -14 42 -117 290 -138 332 -8 16 -15 34 -15 38 0 5 -11 32 -24 61 -24
52 -79 184 -111 263 -13 32 68 -45 414 -395 236 -239 428 -436 426 -438z
m-1066 441 c-72 -219 -132 -399 -133 -400 -1 -2 -23 -3 -49 -4 -26 -1 -47 -5
-47 -9 0 -4 21 -5 47 -2 36 3 45 1 41 -9 -3 -8 -13 -39 -23 -69 l-17 -56 -72
12 c-39 7 -82 15 -96 17 -14 3 -90 17 -170 32 -80 15 -151 31 -157 37 -7 6
-20 8 -28 4 -11 -4 -13 -2 -8 7 11 18 837 844 841 841 2 -1 -56 -181 -129
-401z m501 -427 c-12 -36 -25 -68 -28 -70 -4 -2 -45 -7 -92 -10 -47 -4 -101
-9 -120 -11 -19 -2 -71 -7 -115 -10 -44 -3 -102 -8 -130 -10 -164 -15 -157
-16 -149 8 28 90 42 121 55 122 8 2 57 6 109 9 52 4 115 9 140 12 59 5 124 11
240 19 52 4 97 9 99 11 14 12 10 -13 -9 -70z m305 19 c116 -21 213 -41 217
-44 4 -3 -10 -7 -30 -7 -39 -2 -192 -13 -252 -19 -19 -2 -75 -6 -125 -10 -49
-4 -98 -9 -107 -11 -23 -7 -22 -1 3 75 25 74 -12 72 294 16z m-1450 -99 c22
-4 85 -15 140 -26 110 -21 135 -25 243 -44 40 -7 74 -15 76 -17 3 -2 70 -161
151 -353 80 -193 148 -353 151 -358 19 -30 -51 37 -411 397 -357 357 -428 430
-397 412 4 -3 25 -8 47 -11z m1285 -420 c-239 -239 -435 -434 -436 -433 -2 2
264 808 269 813 5 5 73 13 167 19 47 3 94 7 105 10 11 2 67 7 125 11 58 3 106
7 107 8 2 1 24 3 50 5 l48 2 -435 -435z m-192 347 c-6 -21 -23 -74 -38 -118
-16 -44 -70 -206 -120 -360 -51 -154 -96 -286 -99 -293 -4 -8 -25 29 -51 90
-23 57 -67 159 -96 228 -130 310 -181 435 -178 439 3 4 24 6 164 16 52 4 109
9 125 11 17 1 73 6 125 9 52 4 96 8 97 9 1 1 20 3 42 4 l40 3 -11 -38z"/>
<path d="M457 1044 c-2 -2 -53 -6 -222 -20 -44 -3 -82 -9 -85 -11 -5 -5 158 4
232 12 18 2 69 7 113 10 43 3 81 8 84 11 5 4 -117 2 -122 -2z"/>
</g>
</svg>
